<svg width="24" height="24" viewBox="0 0 24 24" fill="none" xmlns="http://www.w3.org/2000/svg">
<g clip-path="url(#clip0_553_2341)">
<path d="M13.4455 17.8228L19.333 12.0296L13.4455 6.23638C13.3923 6.16803 13.3248 6.11166 13.2474 6.07109C13.1701 6.03051 13.0847 6.00669 12.9971 6.00122C12.9095 5.99575 12.8218 6.00876 12.7398 6.03938C12.6578 6.07 12.5834 6.11751 12.5218 6.17869C12.4602 6.23987 12.4127 6.3133 12.3826 6.394C12.3525 6.4747 12.3405 6.56079 12.3473 6.64644C12.3542 6.73209 12.3797 6.8153 12.4223 6.89044C12.4648 6.96559 12.5234 7.0309 12.5939 7.08197L16.9988 11.4299L5.27898 11.4299C5.1165 11.4299 4.96067 11.493 4.84578 11.6055C4.73089 11.718 4.66634 11.8705 4.66634 12.0296C4.66634 12.1886 4.73089 12.3412 4.84578 12.4536C4.96067 12.5661 5.1165 12.6293 5.27898 12.6293L16.9988 12.6293L12.5939 16.9772C12.4794 17.0901 12.4154 17.2429 12.4159 17.4021C12.4165 17.5612 12.4816 17.7136 12.597 17.8257C12.7124 17.9379 12.8685 18.0006 13.0311 18C13.1937 17.9994 13.3493 17.9357 13.4639 17.8228L13.4455 17.8228Z" fill="#001F54"/>
</g>
<defs>
<clipPath id="clip0_553_2341">
<rect width="24" height="24" fill="white" transform="translate(24) rotate(90)"/>
</clipPath>
</defs>
</svg>
