<svg width="24" height="24" viewBox="0 0 24 24" fill="none" xmlns="http://www.w3.org/2000/svg">
<g clip-path="url(#clip0_553_2343)">
<path d="M10.5545 17.8228L4.66699 12.0296L10.5545 6.23638C10.6077 6.16803 10.6752 6.11166 10.7526 6.07109C10.8299 6.03051 10.9153 6.00669 11.0029 6.00122C11.0905 5.99575 11.1782 6.00876 11.2602 6.03938C11.3422 6.07 11.4166 6.11751 11.4782 6.17869C11.5398 6.23987 11.5873 6.3133 11.6174 6.394C11.6475 6.4747 11.6595 6.56079 11.6527 6.64644C11.6458 6.73209 11.6203 6.8153 11.5777 6.89044C11.5352 6.96559 11.4766 7.0309 11.4061 7.08197L7.00116 11.4299L18.721 11.4299C18.8835 11.4299 19.0393 11.493 19.1542 11.6055C19.2691 11.718 19.3337 11.8705 19.3337 12.0296C19.3337 12.1886 19.2691 12.3412 19.1542 12.4536C19.0393 12.5661 18.8835 12.6293 18.721 12.6293L7.00116 12.6293L11.4061 16.9772C11.5206 17.0901 11.5846 17.2429 11.5841 17.4021C11.5835 17.5612 11.5184 17.7136 11.403 17.8257C11.2876 17.9379 11.1315 18.0006 10.9689 18C10.8063 17.9994 10.6507 17.9357 10.5361 17.8228L10.5545 17.8228Z" fill="#001F54"/>
</g>
<defs>
<clipPath id="clip0_553_2343">
<rect width="24" height="24" fill="white" transform="matrix(4.37114e-08 1 1 -4.37114e-08 0 0)"/>
</clipPath>
</defs>
</svg>
